<svg width="250" height="250" xmlns="http://www.w3.org/2000/svg">
  <!-- Background -->
  <rect width="250" height="250" fill="#ffffff"/>
  
  <!-- QR Code placeholder pattern -->
  <g fill="#000000">
    <!-- Corner squares (position markers) -->
    <!-- Top-left -->
    <rect x="20" y="20" width="60" height="60" rx="5"/>
    <rect x="30" y="30" width="40" height="40" fill="#ffffff"/>
    <rect x="40" y="40" width="20" height="20"/>
    
    <!-- Top-right -->
    <rect x="170" y="20" width="60" height="60" rx="5"/>
    <rect x="180" y="30" width="40" height="40" fill="#ffffff"/>
    <rect x="190" y="40" width="20" height="20"/>
    
    <!-- Bottom-left -->
    <rect x="20" y="170" width="60" height="60" rx="5"/>
    <rect x="30" y="180" width="40" height="40" fill="#ffffff"/>
    <rect x="40" y="190" width="20" height="20"/>
    
    <!-- Sample data pattern -->
    <rect x="100" y="20" width="10" height="10"/>
    <rect x="120" y="20" width="10" height="10"/>
    <rect x="140" y="20" width="10" height="10"/>
    
    <rect x="90" y="35" width="10" height="10"/>
    <rect x="110" y="35" width="10" height="10"/>
    <rect x="130" y="35" width="10" height="10"/>
    <rect x="150" y="35" width="10" height="10"/>
    
    <rect x="100" y="50" width="10" height="10"/>
    <rect x="120" y="50" width="10" height="10"/>
    <rect x="140" y="50" width="10" height="10"/>
    <rect x="160" y="50" width="10" height="10"/>
    
    <rect x="90" y="65" width="10" height="10"/>
    <rect x="110" y="65" width="10" height="10"/>
    <rect x="150" y="65" width="10" height="10"/>
    
    <rect x="100" y="80" width="10" height="10"/>
    <rect x="140" y="80" width="10" height="10"/>
    <rect x="160" y="80" width="10" height="10"/>
    
    <rect x="20" y="100" width="10" height="10"/>
    <rect x="40" y="100" width="10" height="10"/>
    <rect x="60" y="100" width="10" height="10"/>
    <rect x="100" y="100" width="10" height="10"/>
    <rect x="140" y="100" width="10" height="10"/>
    <rect x="180" y="100" width="10" height="10"/>
    <rect x="220" y="100" width="10" height="10"/>
    
    <rect x="30" y="115" width="10" height="10"/>
    <rect x="50" y="115" width="10" height="10"/>
    <rect x="90" y="115" width="10" height="10"/>
    <rect x="130" y="115" width="10" height="10"/>
    <rect x="170" y="115" width="10" height="10"/>
    <rect x="210" y="115" width="10" height="10"/>
    
    <rect x="40" y="130" width="10" height="10"/>
    <rect x="100" y="130" width="10" height="10"/>
    <rect x="140" y="130" width="10" height="10"/>
    <rect x="200" y="130" width="10" height="10"/>
    
    <rect x="20" y="145" width="10" height="10"/>
    <rect x="60" y="145" width="10" height="10"/>
    <rect x="110" y="145" width="10" height="10"/>
    <rect x="150" y="145" width="10" height="10"/>
    <rect x="190" y="145" width="10" height="10"/>
    <rect x="230" y="145" width="10" height="10"/>
    
    <rect x="100" y="170" width="10" height="10"/>
    <rect x="140" y="170" width="10" height="10"/>
    <rect x="180" y="170" width="10" height="10"/>
    
    <rect x="90" y="185" width="10" height="10"/>
    <rect x="130" y="185" width="10" height="10"/>
    <rect x="170" y="185" width="10" height="10"/>
    <rect x="210" y="185" width="10" height="10"/>
    
    <rect x="100" y="200" width="10" height="10"/>
    <rect x="120" y="200" width="10" height="10"/>
    <rect x="160" y="200" width="10" height="10"/>
    <rect x="200" y="200" width="10" height="10"/>
    <rect x="220" y="200" width="10" height="10"/>
    
    <rect x="110" y="215" width="10" height="10"/>
    <rect x="150" y="215" width="10" height="10"/>
    <rect x="190" y="215" width="10" height="10"/>
    <rect x="230" y="215" width="10" height="10"/>
  </g>
  
  <!-- Text label (optional) -->
  <text x="125" y="125" font-family="Arial, sans-serif" font-size="12" fill="#666" text-anchor="middle">
    QR CODE
  </text>
</svg>
